VIDEO INFO:

Format                           : Matroska
Format version                   : Version 2
File size                        : 4.37 GiB
Duration                         : 1h 39mn
Overall bit rate                 : 6 307 Kbps
Encoded date                     : UTC 2012-01-06 04:19:41
Writing application              : mkvmerge v4.9.1 ('Ich will') gemaakt op Jul 11 2011 23:53:15
Writing library                  : libebml v1.2.1 + libmatroska v1.1.1

Video
ID                               : 1
Format                           : AVC
Format/Info                      : Advanced Video Codec
Format profile                   : High@L4.1
Format settings, CABAC           : Yes
Format settings, ReFrames        : 12 frames
Codec ID                         : V_MPEG4/ISO/AVC
Duration                         : 1h 39mn
Bit rate                         : 5 535 Kbps
Width                            : 1 280 pixels
Height                           : 546 pixels
Display aspect ratio             : 2.35:1
Frame rate                       : 23.976 fps
Color space                      : YUV
Chroma subsampling               : 4:2:0
Bit depth                        : 8 bits
Scan type                        : Progressive
Bits/(Pixel*Frame)               : 0.330
Stream size                      : 3.76 GiB (86%)
Title                            : A Lonely Place To Die
Writing library                  : x264 core 115 r2008 4c552d8
Encoding settings                : cabac=1 / ref=12 / deblock=1:-3:-3 / analyse=0x3:0x113 / me=umh / subme=10 / psy=1 / psy_rd=1.10:0.15 / mixed_ref=1 / me_range=32 / chroma_me=1 / trellis=2 / 8x8dct=1 / cqm=2 / deadzone=21,11 / fast_pskip=0 / chroma_qp_offset=-2 / threads=12 / sliced_threads=0 / nr=0 / decimate=1 / interlaced=0 / bluray_compat=0 / constrained_intra=0 / bframes=6 / b_pyramid=2 / b_adapt=2 / b_bias=0 / direct=3 / weightb=1 / open_gop=0 / weightp=2 / keyint=250 / keyint_min=23 / scenecut=40 / intra_refresh=0 / rc_lookahead=60 / rc=2pass / mbtree=1 / bitrate=5535 / ratetol=1.0 / qcomp=0.60 / qpmin=1 / qpmax=63 / qpstep=4 / cplxblur=20.0 / qblur=0.5 / vbv_maxrate=40000 / vbv_bufsize=30000 / nal_hrd=none / ip_ratio=1.40 / aq=1:0.80
Language                         : English

Audio
ID                               : 2
Format                           : DTS
Format/Info                      : Digital Theater Systems
Codec ID                         : A_DTS
Duration                         : 1h 39mn
Bit rate mode                    : Constant
Bit rate                         : 755 Kbps
Channel(s)                       : 6 channels
Channel positions                : Front: L C R, Side: L R, LFE
Sampling rate                    : 48.0 KHz
Bit depth                        : 24 bits
Compression mode                 : Lossy
Stream size                      : 535 MiB (12%)
Title                            : DTS
Language                         : English

Text
ID                               : 3
Format                           : UTF-8
Codec ID                         : S_TEXT/UTF8
Codec ID/Info                    : UTF-8 Plain Text
Title                            : NL sub
Language                         : Dutch

Verenigd Koninkrijk
Thriller / Misdaad
99 minuten

geregisseerd door Julian Gilbey
met Melissa George, Ed Speleers en Eamonn Walker

Een groepje van vijf bergbeklimmers trekt door de Schotse Hooglanden en ontdekken hier een jong Servisch meisje dat begraven is in een ondergrondse kamer in de wildernis. Al snel raken de bergbeklimmers verstrikt in een dodelijk kat-en-muis-spel met de ontvoerders terwijl ze proberen het meisje in veiligheid te stellen.

Ondertiteling in film samengevoegd en is uit te schakelen.
Aparte sub bijgevoegd (alptd.srt) om eventueel te syncen met andere bestanden.
